<svg xmlns="http://www.w3.org/2000/svg" viewBox="0 0 512 512"><defs><style>.cls-1{fill:#00ea6a;}</style></defs><g id="Icono"><circle class="cls-1" cx="235.27" cy="235.27" r="47.87"/><path class="cls-1" d="M486.87,486.89a41.48,41.48,0,0,1-58.64,0L360.37,419l-14.5-14.5-12.08-12.08a41.5,41.5,0,0,1-1.88-56.64c1.32-1.24,2.59-2.53,3.85-3.84a139.51,139.51,0,0,0,27.49-41.43v0c.24-.64.47-1.29.75-1.93s.58-1.37.91-2c0,0,0,0,0-.06a140.36,140.36,0,0,0,0-102.47s0,0,0,0c-.55-1.34-1.1-2.67-1.68-4a.15.15,0,0,1,0-.08,140.07,140.07,0,0,0-27.47-41.37c-1.26-1.31-2.53-2.59-3.85-3.84A139.78,139.78,0,0,0,292.62,108c-2.61-1.18-5.23-2.29-7.91-3.29a138.29,138.29,0,0,0-44.39-9.06c-1.82-.09-3.65-.13-5.49-.13-1.6,0-3.2,0-4.79.1a138.65,138.65,0,0,0-42.52,8.12c-4,1.42-7.87,3-11.68,4.81a139.88,139.88,0,0,0-34.75,23.06q-5.09,4.59-9.7,9.68a139.91,139.91,0,0,0-22.66,33.65,139.28,139.28,0,0,0-13.48,52.92c-.13,2.46-.2,5-.2,7.45s.07,5,.2,7.45a139.25,139.25,0,0,0,36.11,86.53s0,0,0,0a136.67,136.67,0,0,0,9.74,9.67,139.39,139.39,0,0,0,34.65,23q5.78,2.7,11.84,4.86a0,0,0,0,0,0,0A138.58,138.58,0,0,0,230,375c1.59.07,3.19.09,4.79.09,1.84,0,3.67,0,5.49-.13a41.53,41.53,0,0,1,36.41,41.16,41.42,41.42,0,0,1-41.46,41.48A222.26,222.26,0,1,1,419,360.37l67.84,67.86A41.48,41.48,0,0,1,486.87,486.89Z"/></g></svg>